<mxfile host="65bd71144e">
    <diagram id="FHPeeSO3JofAtim6gt0w" name="Page-1">
        <mxGraphModel dx="1682" dy="475" grid="1" gridSize="10" guides="1" tooltips="1" connect="1" arrows="1" fold="1" page="1" pageScale="1" pageWidth="850" pageHeight="1100" math="0" shadow="0">
            <root>
                <mxCell id="0"/>
                <mxCell id="1" parent="0"/>
                <mxCell id="2" value="" style="shape=curlyBracket;whiteSpace=wrap;html=1;rounded=1;labelPosition=left;verticalLabelPosition=middle;align=right;verticalAlign=middle;sketch=1;hachureGap=4;jiggle=2;curveFitting=1;fontFamily=Architects Daughter;fontSource=https%3A%2F%2Ffonts.googleapis.com%2Fcss%3Ffamily%3DArchitects%2BDaughter;fontSize=20;" parent="1" vertex="1">
                    <mxGeometry x="205" y="180" width="30" height="70" as="geometry"/>
                </mxCell>
                <mxCell id="6" style="edgeStyle=none;sketch=1;hachureGap=4;jiggle=2;curveFitting=1;html=1;fontFamily=Architects Daughter;fontSource=https%3A%2F%2Ffonts.googleapis.com%2Fcss%3Ffamily%3DArchitects%2BDaughter;fontSize=16;" parent="1" edge="1">
                    <mxGeometry relative="1" as="geometry">
                        <mxPoint x="400" y="215" as="targetPoint"/>
                        <mxPoint x="330" y="210" as="sourcePoint"/>
                        <Array as="points">
                            <mxPoint x="280" y="215"/>
                        </Array>
                    </mxGeometry>
                </mxCell>
                <mxCell id="3" value="" style="shape=curlyBracket;whiteSpace=wrap;html=1;rounded=1;labelPosition=left;verticalLabelPosition=middle;align=right;verticalAlign=middle;sketch=1;hachureGap=4;jiggle=2;curveFitting=1;fontFamily=Architects Daughter;fontSource=https%3A%2F%2Ffonts.googleapis.com%2Fcss%3Ffamily%3DArchitects%2BDaughter;fontSize=20;rotation=-180;" parent="1" vertex="1">
                    <mxGeometry x="250" y="180" width="30" height="70" as="geometry"/>
                </mxCell>
                <mxCell id="4" value="Javascript Execution Context" style="text;strokeColor=#001DBC;align=center;fillColor=#0050ef;html=1;verticalAlign=middle;whiteSpace=wrap;rounded=0;sketch=1;hachureGap=4;jiggle=2;curveFitting=1;fontFamily=Architects Daughter;fontSource=https%3A%2F%2Ffonts.googleapis.com%2Fcss%3Ffamily%3DArchitects%2BDaughter;fontSize=20;fontColor=#ffffff;" parent="1" vertex="1">
                    <mxGeometry x="250" y="80" width="310" height="30" as="geometry"/>
                </mxCell>
                <mxCell id="5" value="Code&lt;br&gt;" style="text;strokeColor=none;align=center;fillColor=none;html=1;verticalAlign=middle;whiteSpace=wrap;rounded=0;sketch=1;hachureGap=4;jiggle=2;curveFitting=1;fontFamily=Architects Daughter;fontSource=https%3A%2F%2Ffonts.googleapis.com%2Fcss%3Ffamily%3DArchitects%2BDaughter;fontSize=20;" parent="1" vertex="1">
                    <mxGeometry x="210" y="260" width="60" height="30" as="geometry"/>
                </mxCell>
                <mxCell id="7" value="Global Execution context&lt;br&gt;" style="text;strokeColor=none;align=center;fillColor=none;html=1;verticalAlign=middle;whiteSpace=wrap;rounded=0;sketch=1;hachureGap=4;jiggle=2;curveFitting=1;fontFamily=Architects Daughter;fontSource=https%3A%2F%2Ffonts.googleapis.com%2Fcss%3Ffamily%3DArchitects%2BDaughter;fontSize=20;" parent="1" vertex="1">
                    <mxGeometry x="410" y="200" width="190" height="30" as="geometry"/>
                </mxCell>
                <mxCell id="9" value="1. Global Execution Context&amp;nbsp;&lt;br&gt;2. Function Execution context&lt;br&gt;3. Eval - Mongoose Property&amp;nbsp;" style="text;strokeColor=none;align=center;fillColor=none;html=1;verticalAlign=middle;whiteSpace=wrap;rounded=0;sketch=1;hachureGap=4;jiggle=2;curveFitting=1;fontFamily=Architects Daughter;fontSource=https%3A%2F%2Ffonts.googleapis.com%2Fcss%3Ffamily%3DArchitects%2BDaughter;fontSize=20;" parent="1" vertex="1">
                    <mxGeometry x="190" y="370" width="320" height="30" as="geometry"/>
                </mxCell>
                <mxCell id="10" value="" style="edgeStyle=isometricEdgeStyle;endArrow=none;html=1;elbow=vertical;sketch=1;hachureGap=4;jiggle=2;curveFitting=1;fontFamily=Architects Daughter;fontSource=https%3A%2F%2Ffonts.googleapis.com%2Fcss%3Ffamily%3DArchitects%2BDaughter;fontSize=16;" parent="1" edge="1">
                    <mxGeometry width="50" height="100" relative="1" as="geometry">
                        <mxPoint x="235.98" y="340" as="sourcePoint"/>
                        <mxPoint x="275.98" y="280" as="targetPoint"/>
                    </mxGeometry>
                </mxCell>
                <mxCell id="11" value="How Javascript is Executed" style="text;strokeColor=#2D7600;align=center;fillColor=#60a917;html=1;verticalAlign=middle;whiteSpace=wrap;rounded=0;sketch=1;hachureGap=4;jiggle=2;curveFitting=1;fontFamily=Architects Daughter;fontSource=https%3A%2F%2Ffonts.googleapis.com%2Fcss%3Ffamily%3DArchitects%2BDaughter;fontSize=20;fontColor=#ffffff;" parent="1" vertex="1">
                    <mxGeometry x="250" y="500" width="320" height="30" as="geometry"/>
                </mxCell>
                <mxCell id="12" value="" style="shape=curlyBracket;whiteSpace=wrap;html=1;rounded=1;labelPosition=left;verticalLabelPosition=middle;align=right;verticalAlign=middle;sketch=1;hachureGap=4;jiggle=2;curveFitting=1;fontFamily=Architects Daughter;fontSource=https%3A%2F%2Ffonts.googleapis.com%2Fcss%3Ffamily%3DArchitects%2BDaughter;fontSize=20;" parent="1" vertex="1">
                    <mxGeometry x="202.5" y="570" width="30" height="70" as="geometry"/>
                </mxCell>
                <mxCell id="16" style="edgeStyle=none;sketch=1;hachureGap=4;jiggle=2;curveFitting=1;html=1;exitX=0.1;exitY=0.5;exitDx=0;exitDy=0;exitPerimeter=0;fontFamily=Architects Daughter;fontSource=https%3A%2F%2Ffonts.googleapis.com%2Fcss%3Ffamily%3DArchitects%2BDaughter;fontSize=16;" parent="1" source="13" edge="1">
                    <mxGeometry relative="1" as="geometry">
                        <mxPoint x="530" y="605" as="targetPoint"/>
                        <Array as="points"/>
                    </mxGeometry>
                </mxCell>
                <mxCell id="13" value="" style="shape=curlyBracket;whiteSpace=wrap;html=1;rounded=1;labelPosition=left;verticalLabelPosition=middle;align=right;verticalAlign=middle;sketch=1;hachureGap=4;jiggle=2;curveFitting=1;fontFamily=Architects Daughter;fontSource=https%3A%2F%2Ffonts.googleapis.com%2Fcss%3Ffamily%3DArchitects%2BDaughter;fontSize=20;rotation=-180;" parent="1" vertex="1">
                    <mxGeometry x="247.5" y="570" width="30" height="70" as="geometry"/>
                </mxCell>
                <mxCell id="14" value="Code&lt;br&gt;" style="text;html=1;align=center;verticalAlign=middle;resizable=0;points=[];autosize=1;strokeColor=none;fillColor=none;fontSize=20;fontFamily=Architects Daughter;sketch=1;hachureGap=4;jiggle=2;curveFitting=1;fontSource=https%3A%2F%2Ffonts.googleapis.com%2Fcss%3Ffamily%3DArchitects%2BDaughter;" parent="1" vertex="1">
                    <mxGeometry x="207.5" y="650" width="70" height="40" as="geometry"/>
                </mxCell>
                <mxCell id="15" value="Execute in two phase" style="text;html=1;align=center;verticalAlign=middle;resizable=0;points=[];autosize=1;strokeColor=none;fillColor=none;fontSize=20;fontFamily=Architects Daughter;sketch=1;hachureGap=4;jiggle=2;curveFitting=1;fontSource=https%3A%2F%2Ffonts.googleapis.com%2Fcss%3Ffamily%3DArchitects%2BDaughter;" parent="1" vertex="1">
                    <mxGeometry x="300" y="560" width="220" height="40" as="geometry"/>
                </mxCell>
                <mxCell id="17" value="1. memory creation&amp;nbsp; phase" style="text;html=1;align=center;verticalAlign=middle;resizable=0;points=[];autosize=1;strokeColor=none;fillColor=none;fontSize=20;fontFamily=Architects Daughter;sketch=1;hachureGap=4;jiggle=2;curveFitting=1;fontSource=https%3A%2F%2Ffonts.googleapis.com%2Fcss%3Ffamily%3DArchitects%2BDaughter;" parent="1" vertex="1">
                    <mxGeometry x="530" y="590" width="270" height="40" as="geometry"/>
                </mxCell>
                <mxCell id="18" value="" style="shape=image;imageAspect=0;aspect=fixed;verticalLabelPosition=bottom;verticalAlign=top;sketch=1;hachureGap=4;jiggle=2;curveFitting=1;fontFamily=Architects Daughter;fontSource=https%3A%2F%2Ffonts.googleapis.com%2Fcss%3Ffamily%3DArchitects%2BDaughter;fontSize=20;image=data:image/jpeg,/9j/4AAQSkZJRgABAQEAYABgAAD/2wBDAAMCAgMCAgMDAwMEAwMEBQgFBQQEBQoHBwYIDAoMDAsKCwsNDhIQDQ4RDgsLEBYQERMUFRUVDA8XGBYUGBIUFRT/2wBDAQMEBAUEBQkFBQkUDQsNFBQUFBQUFBQUFBQUFBQUFBQUFBQUFBQUFBQUFBQUFBQUFBQUFBQUFBQUFBQUFBQUFBT/wAARCADFAYsDASIAAhEBAxEB/8QAHwAAAQUBAQEBAQEAAAAAAAAAAAECAwQFBgcICQoL/8QAtRAAAgEDAwIEAwUFBAQAAAF9AQIDAAQRBRIhMUEGE1FhByJxFDKBkaEII0KxwRVS0fAkM2JyggkKFhcYGRolJicoKSo0NTY3ODk6Q0RFRkdISUpTVFVWV1hZWmNkZWZnaGlqc3R1dnd4eXqDhIWGh4iJipKTlJWWl5iZmqKjpKWmp6ipqrKztLW2t7i5usLDxMXGx8jJytLT1NXW19jZ2uHi4+Tl5ufo6erx8vP09fb3+Pn6/8QAHwEAAwEBAQEBAQEBAQAAAAAAAAECAwQFBgcICQoL/8QAtREAAgECBAQDBAcFBAQAAQJ3AAECAxEEBSExBhJBUQdhcRMiMoEIFEKRobHBCSMzUvAVYnLRChYkNOEl8RcYGRomJygpKjU2Nzg5OkNERUZHSElKU1RVVldYWVpjZGVmZ2hpanN0dXZ3eHl6goOEhYaHiImKkpOUlZaXmJmaoqOkpaanqKmqsrO0tba3uLm6wsPExcbHyMnK0tPU1dbX2Nna4uPk5ebn6Onq8vP09fb3+Pn6/9oADAMBAAIRAxEAPwD80PEV9YedZgabj/RIus5PG0cdKyvtll/0D/8AyMf8Kl8Q/wCvsv8Arzh/9BFZdUDZq2erW1ldRXEWngSRMHGZTjj8Kjk1C0mleRrAFnYsf3p7nPpVrwjqGkaXqhutYsH1OGNCYrVX2K8n8O8/3fWt74z2dpY+OZVsrSGxgkt4ZRBAuEUsgJwKvlXLzEcz5uU5X7bZ/wDQPH/f4/4VYt9Zt7a3uY009ds6BHzKemQfT2rJozxioKuy+tzav93Tc/SVv8Kabyz76f8A+RT/AIV6R+zv4nvbH4gaPoiC2l03UbxBcxT20chYdMAsCR+Fc/a+C5/HHxYuPD9gUhkutQljViPljUMSTx2ABrndZQnKM1ZJXuehHDOpSjOm7tu1jnpdZtprOC2bT1EcLMy/vTn5sZ7ewqD7ZZf9A/8A8jH/AAr1jxp8E9K03wdq2s6NcauG0iSNblNWsfIWdGbb5kRzyAccHnBq3qHhL4aWfwv8M6nc3erRTXklyv2uG0UvK6bQVYFsBVJ4I65NZRxdOSTim7ux0Sy2rTlKFSSVlff5HjhvLL/oH/8AkY/4VPfa5bahdPcS6evmPjO2UgcDHpWXIq+Y2wkpngnrivQvg/8ADC0+KP8AwlVn9vkttY0/SJdS062VARdPEQXjJ7fJkjHpXZKUYx5meWotuyOL+3Wf/PgP+/x/wqxY61bafdLPFYLvUEDMpxyMenvXY3HwtsdK+Cuj+M9Sv5ba/wBY1aSzsrMRgqbeMASTHnPDEgD2r0rVv2avC2qfCvxB4l8Laj4na70O1S9lk1zRzaWd5GSA3kuTnIJzg9RWUq0I2uaRpSlsfPpuLULuOmsF9fNOP5U37ZZf9A//AMjH/CvozQfG+pePv2TfiDHrMdhP/Ys2nw2MsVhDFLEpbBG9VDHI9TXMfspa14L0/wAd6dZeIfCUfirWdT1C3s7Jb58WdtGzYkkdBy7c8DpS9q4wlJr4Q9mm4q+55FHrVtHZzWo09fLlZXOZTnjp2qv9tsv+gev/AH9P+FdH8ZtPttK+LHi+zs4Ut7W31W5iihiGFRRIQAB2GK5Kzt/tl5BBvWPzHVN7nCrk4yfauiNpJMys07Fr7bZf9A9f+/p/wqzda3bXcdskmnrtt4/LTEp6bi3PHqTXqUn7N9tHCX/4WF4WbAztF02T7fd614zd24tbqaEOsnluyb0OVbBxke1Cszeth6tCzqK1y59usu2nj/v6f8KdHqVpDIjrp4DKwYfvT2OfStb4e6pouk60Z9Y0o6y2FW1tmfbF5hYcyY5KgZ4HWuw8SeD7HXP2h5fD8cKWWnz36RmK3XARNoLBR24zXfTwiqUlUjLVySt6nLzHnd1qlrdXEkz6cA8jFziU4yefSovtll/0D/8AyMf8K941TwzHr3h7VoLvw5pOlaebCa/0a6sT+/UQsARIcktuB5z3r53qsZgnhJJN3uCdzXtNZtrLzvLsF/exGJsynocZ7e1QfbLL/nw/8jH/AArPorz7Io0Ptll/z4D/AL/H/Cp/7ZtjYrafYF8oSeb/AK05zjHpWRRRZCND7bZf9A9f+/x/wpft1l/0D1/7/H/Cs6iiyA2b7XINRkieawXMcSwriUj5VGB2qt9tsv8AoHr/AN/T/hWfRRZDNez1i1sbuC5i09fMhcOuZTjIOfSopNQs5ZGdrAbmJY/vj3/Cs2iiyEaH2yy/58B/3+P+FWLbWra1huYksF2zoEbMp6Zz6Vj0UWQzQ+2WX/PgP+/x/wAKPttl/wBA8f8Af4/4Vn0UWQGxLrVtNZwWraevlwszL+9OeevaoPttl/0Dx/3+P+FZ1FFkBo/bbL/oHj/v8f8ACp77WrbULpp5dPXewUHbKQOAAO3tWPRRZCND7ZZf9A8f9/j/AIVPY6zbafdJcRWC+YucZlOOQR6e9ZFFFkBofbbL/oHj/v8AH/Cj7bZf9A9f+/p/wrPoosgNePWbaKzmthp6+XKys3705+XOO3vUP22y/wCgeP8Av8f8KzqKLIDR+22X/QPH/f4/4V2Oh+Jlt9Kt4ksU2quB+9PqfavPa6XS/wDkHw/T+tJ2Ao+Iv9fZf9ecP/oIrKrf8Wapd6hJYLcztKBaxON2OpUZPSsCkKRqeHpNHjvt2tx3ktpt4WxZVfd2+9xium+Jfirw74wukv8AT7PUrW/2xxN9qeMx7FXaMAc54rhvwo69sVfM7WI5dbhSUUoqRm34J8UyeC/Fmk65DEs0ljcLN5bdGweR+Vd5cfE7wx4d+IGneK/CelajHdrdyXN3DqEqFCr5zGm36tyfavKFVnztUke1JnbxjFYyowqSu+1jup4irRhyx0V7/PyPVviH8TND8RaLdWulXHiqSa6lDmPVtQEkEK5yVCD73Pc+lVdC8d+FLzwDY+HPFWnalK2lzzT2dxpsiDf5mCyuGHHIHIrzKlzQsPBRUEW8ZVlN1Jatqw6ZlMjlFwmTtB7Cun+Fvj67+GPj7RvE1mvmPYz7pISeJYiCskZ9mUsPxrlc8Ubq3cVJcrOPm1ue0fFT47aT4t+IXhO/0Dw82neDvDAhWw0O8cPkLJ5km8jgl2z+Fem+Lv2sPBOqaf46Sx0rxZeXfi6waCaTVtQSSKwfIKxwRDgRgjr1xivkrcaWsPq9OyVtEa+2nrrues/BX4p+HvCvh3xX4S8ZaZqGoeGPEEcRlfSpES5t5Ym3I67xgjsQavfDfxz8KvBPxKl8Rz6L4pkstPu4bnRreC5gLjZyftBI5yf7teM7T15puPmqvZQfN57k88o28j0X44+LPBnjjxdca74TsNasJNQnlur6PV5InHmO27EezovJ6159a3UlldRXELbZYnDo2M4IORUbUlaRioqyIcm3c9ZP7U3xHZCp1mHGMf8AHjB/8RXlV1cSXlxLPKd0srl3bGMknJqOiqLnUnU+N3N/wfd6FY6kZtehvpoFAaJbBkVt4YH5t3bGeldh4u+Jei3Xjq18XeHbPULXV0u1uZUvGQxEAAALt55A5+teYDmlKke1dcMRVhT9nHa99uvqY6HqOs/Erw9Dp+rv4e0/ULbU9XjMM5vJ1aK2jZtzrEByckd+1eXE0lFTWxFSu7zYWsFFFFcwwooooAKKKKACiiigAooooAKKKKACiiigAooooAKKKKACiiigAooooAKKKKACum0v/kHw/T+tczXV6PeTxabAqSsqgHA49TUyAyvEH+usf+vOH/0Gsut7xZps1hJp5lMRBtYlHlyq/RR6GsIjFIUjU8Oa2PD+pC7On2mpEIypDex+ZGGPRtueSK7n4jxwTeC9B1DUtKs9H8SXMrt5NnEIfMtsfK7oOhz0rnPhz4k0fwrr39oaxpj6osaHyI0YDZJ2cgjBxU3jjxBoHiJmvLOHV21aWTdLcajcrICvoAAMVorKJnq5bHH0UGkqCz1j9nPxTfaf8QdH0SP7O+maleItzDNbRyFxg8BmUkfhXPWfgu48dfFq48PWBS3e61GWNWI+WNQxJOPYA8e1YXgzxRN4L8VaVrlvGs0tjcLMI26Ng8j8RXeXPxS8OaD4907xX4T0W9tb2O7e6uor+5EiMH+9GmAMDluTz0rhqU5xqSlTWrX4ntUatKdCNOtLSMr28vI1PGvwP0/S/Bura3pX9uQNo8iLcLrViIEuEZtvmREH1xwecGptU8MfDaz+FvhjU7ibWYpLyS6UXVvbR+bIylAVcF8BQemPU5rm/HvxA8Oa9pNzb6Pa69Fc3UiuRqGpGWGEZyUVB97Pq3pSaD8QPDFx4DsvDfinR767GmzzT2dxp9wsZPmYLI4YHjIHI5rGNOtyRcm27nTOthvazVNRScfO17/hoeayhQx2ElMnGeuK9B+DnwxtPim/iix+3y2us6fpE2padbxoCt08RBeMk9DsyRj0rz+TY0jFAQmflB6gV03ww8eXfwx8e6L4msh5kthOHeEniWM/LJGfZlLD8a9KXNye7ueFGyl72x0F18LrLSfgvo3jPUtQuLfUNZ1aSzsrNYwyNbRgCSY9yQxIAHXFem6x+zL4avvhX4h8SeG5vGNvd6HaJetP4i0hbSzv4yQG8hs7gR1APUVyHxV+POn+MPiJ4W1Pw/4fXSvCnhnyRp2hXDiRcLIJJN5AwS7ZyfevRfFH7V3gjUbXx6un+G/EL3njCweC5uNT1QTLZvkMqQJjAjBz15xwK4pKu1HTX+tDoTpJsz9A8dar4+/ZN+IUWt/Y7kaLLp8Fi8djDFJEhcgjeqhjkdyTXk3wk+I954EvJ4NK8JaH4l1nUJI4rdtWsPtjRHP3YoycZYnHTNa3wX+LHh/wf4e8U+FPGGj3mr+FvECRGUabcCG4glibcjoWBB9CDXb/AAd+Onwu+E+reKb618Ia5Hd3xEOk6jDfRtd6fBtw+1mQgSMf4gMjtVNSgpxjC9yU1Jxblaxk/te6Po2j+KvDa2+k6doHiqbSY5fEWlaUAtvbXZJIUKCQrFcEqOhrwqytvtl3DBvWLzHCb26Lk4yfau2+LOt+Cde1S3u/B9hrlo0m976TXb1bmSaQnIYMFHvnNcRa3UlncRTwtsljYOjDsQcg100YuNNRZlNpzuezt+zXEsZb/hP/AA7kDOMzH/2nXjF5b/ZbueDesnluyb16Ng4yK9P/AOGovieV2nxXcbcYx5MX/wATXl9xcSXVxLPK2+WRy7t6knJNaq/U3xEqErexi13O++C7aVDrmpzalJpizR6fJ9iXVh+4M5I27sjsMmrHxa0/V1sdHv7y20D+zrjeLe88PxqsUjAjcGI7j3HeuQ8KXGg2+oO/iG2vLuz8s7Y7KRUffnjJIPHWtfxv48tvEGl6doukaaNI0PT2eSK3aQyyPI2Nzux6ngdOK9eNaH1N0pvXpbffqcPU42iiivJKCiiigAooooAKKKKACiiigAooooAKKKBQAUUu2kpgFFFFIAooooAKKKKACiiigAooooAK6XS/+QfD9P61zVdVpFtJJpsDLtwQergdzSYGX4gGLix/684f/QBWa1aXiH/j4sf+vOH/ANAFZhNSKW4UfjW34P1b+ydahb7PYXHnfuf+JlEJIkyfvEe1d38bdOgtrTR307T9NOnBSratpoUJcy9SuB90DsDWijdcxm5WkonlFFGNopagsSlZWXkgj8K9O/Z78P8AhzxF48soNenkLrKrW9n5HmR3BAJIc54AwPrXU682mfGTxx4d8P2/iKS5t5JpkKx6ZHai2GMgKF+90xz6VxzxXLU5OV2Su2erSwXtKCqKSu3ZI8HpMV22j+AYNS8I+LtXe7dJNEmgjjiCjEu9ypJ9MYrvYPgb4Xh8QaX4evPEV1/bGsWkdxZpDACkReIOBKc9CcgY7Vc8VTi7E08BWqK6t9/d2PDeRRzXpHhz4d6Lb+GLnxF4q1G6tdNF6bC3isI1eWaRRlm+bgKMitTwr8PPCsPxh0zRLzV/7Y0i6eGS1ktEB87fgiOUZ+U9jim8TCKk0noEcDUk4ptLmt17nkX1qzJpt1HYx3j20y2kjFUnKHYxHUBuhNdr8TtK8IaXrc0OgXWoNJHdyR3ENxCqpGoOPkIPPfrW34+s7aH4Q+HZtG13UL/Q/t00aWN7AkfkyhQWYbeTnPeq9tpB2+In6rZ1I3vydvU8m6+1Feu6D8KfDUGl+Hx4m1u8sNU8QLvsorWAPHCpO1WlJPc9hUGm/Buys4fFU3iLWv7Oj8PXkdvMYY/MMysSPkH9444zUfWqev8AXkV9Qraba+e2l9fkeUtSCu5+KXgfT/CMuj3WkXk15pWrWgu7drlAsqjJBDAcdRXDCuiE1UipROSrSlRm6ct0KeKSvYtA+D2heKvDMs2nXmtf2pHYvd/aJ7HZYsyLuaMPnPYjPrWR4X8AeHo/Btp4g8Uatd6eupXL2thDZwiQkpjdI+T90EgcV1KjO6Xc8r69Ss2r6O1ra9zzXFG32r3nxt8OdN1z4teKDd3X9neH9F0+C6uprOIbmXyo1UIvTLE/rWja+G/Dc1n8KItLH9p6ZeazcqzXcCrKw3L+7kA4OP61UaDk7X/q9jnlmUIwUlFvT9L2v3PnXbQRivpPxR8N9D0vVvG2qadZQz6FeaJLeWG5OLaZZQroPQqc/gRXmNx8Lbe38ReCdNF9IV8Q29vM8m0Zh8w4IHriipQlTdjTD5hSxEeeOn/DXf3HnVG2vavCPwM0XWkT7frl1aTXGoXWnW6RQBgWiGQ7HPTHauf8WfDHT9N1XwnHpOoT3dlrrrEJLqMI6P5vltwO2aidOVOm6stka08ZRq1fYRvzeh57Np1zb2sNzJbTR282fKmeMhJMddpPBx7VX4r6G/a2ZJPjfZeALUfY9B8MRWui2cEYACAhTJJjuzMxJzXU6j+yX4GsvFHiPwPB43v77xzY2M2o28MdmBaJGkQk8uVzzvI/u8DivKpYpTpQqTVuZX+R63sW5NR6HyfxS16t4g+Ddpovw5+G3iRNRmlm8WXE0E0BQBbcRyKmVPfOc8165a/sf+EtP8VeMLLXfFupWmnaDrdho8clvarJJcNdICp9FwxH4A1pLFU4q7BUJt2Pk2hq+mfiN+z74C+EzaDrd1reqeIfD9r4hn0HX4FhWCUywqHPkYP3SCBk039rK18K3fw/+Emv+FfC9p4VtNXsbqQ2tsMsVSUKnmP1ZsDJJ7k0RxKnKKitGEqLim29j5nope9G2us5xBSj9a9S/Z9+Ddp8avE2saVeayNBisdKm1H7ZIm6NPL253/7OCTx6V2Xib4A+DLjwj4V8S+C/E+o6rpl/r6eHr5r+1WJllJX97EB/CQeAeelYyrRjLle5tGlKS5kfPlNxXv8X7NdhJ8VviV4S/tq4W38J6bc30Nz5a7p2iAIVh2Bz2rttF/ZJ8BL4Ri1XWvGerQXS6Ja+ILq3tbJGEdtK2wqpJ5fceO2Kyli6cdzRYectj5Lx60+GB7iZIokaWRztVEGSxPYCvoHV47P9lv4s+IfD1p4Z0vx9czLAdLuNbtjK0SSKHXEQ4LkMBU/7XGi6V4a1TwJqNrolp4P8aXulrfa3o+m/LHaTbsxHbn5GK8kU/bOUlGK32J9laLbex883VnPY3MlvcwyW88Z2vFKhV1PoQeQasaboeoax532Cwur4wp5kv2aFpNijqzYBwPc19A/tZWtv4m8N/Cz4kCJYdU8VaGRqYUY824t38oynHdlAz7it+4n8S/s/wD7HtjFFdf2HrXjLXPPWaxkV3n04W2CjuuQo3N9zOeelecsxcqNKUYrnnLls31V+b7rDdG0pK+i1PlI8GkpWbc1JXtnMFFFFABRRRQAV1Glf8g+H6f1rl66jSv+QfD9P60mBX8WR2ayWH2WWaVvssQPmIFGNox+NYNaniH/AI+LL/rzh/8AQay6kUjX8MtoqagTrsd3JZbDhbNgrlu3J7Vs+K/GdjqGh2ugaJpzabo8ExuD50nmSzSEY3Me3HYVyHairu0rEW6hSUUq9akZ0/wx8WweCPG+ma1cwyXEFqzM0cRAY5UjjP1o8AeMx4I8ead4hNsbpLW4MrQbsF1OQRn1wap2+j282k2twdwlkeRWweMLtx/M0f2ND/ef86ylyaqS3OiFaceVxfwu6O81X4k+FbPwn4j8P+HtJvY49WkinN5eyqZN6SbthA4CgfiTTZPi5p8nxV8N+KPsc4s9MtbaCWHI3sY4ghI+pFcL/YsHq350f2PD/ef86wjSox6HVLHV5de34anZeH/iL4evPC914b8U6fezacL57+zuLB1WWFmGGUg8EEAVz1r4t07w38QrHXfD+nyw2FjcRzQ211JvdtuM7j6nn86zv7Gg9W/OqWoaeIHQQhm3DJ71rGnS18yHias+VdVtpqdb481zwZrmqRX+kWOqQSXFyZr1LmVWAVjkqmB168muk17xx8P7z4dR+GrOx1tGtZZLq2kmkjI81wBhsD7vHavH2UjqOaKPq0Go6v3dtTRY2rFz0Xvb6I9f0j4reF73SfDb+I9IvrnV/D0YitWtZlWK4VW3IJARkYPp1rn9U+KH9u+H/F1vfW7f2hrl/DeCSPHlxhCSV/WvP80URw9OLbRE8ZWqRUW/6tbX5HY+O/Glt4r0bwrZwQSQvpFibWVnIIdt5bI9ua5CNhHIrEbgCDg96atL96uiMFCPKjmqTlVk5S3Z9Br+0B4WW+i1BtL1Y3E2n/2fNZ/aQLW3UxbC0SDuff1NcR4f8e+GbjwXaaB4n02+uRpd1Jc2E9jKqkh8Fo3z2JA5FeZYpRXT7abd2zyY5fQgrRTXzfQ9jm+NGk6h488TX17pdwPD3iCxjsbi2hkAmiCqm1kPTIZfyo/4W14a0u48Ew6Rpl/Fp3h3UZLt/PkVpZ1Yqc+gOQfbpXjfWlVSxwMk+gqfbSRf1Gjfb8fK35HsGj/HKGz8MeO9CubOWez1xpZbFgRutndssD7EAdO4qXSfi94VhPhHVNR0S9u9c0GGK1WMTAWzKh4kx13Y7dM141JG0f3lZT7jFJu4pe2m7O4fUaGtla/+Vj2PQfjRpelzaW8ljcyC11e71B8EfMkqkKo9wa5bxR8Q4tW0vwrDYwy213oxkfzHIILGXepH04rhVNKaJScouD2ZrDC0qc1UitUe3/H/AOIHhz4g+PvDfxC0u63X+o29tLrel7CHtrqLarkHowcKCK6OD9pDw5H+0f4r8fmxvhpGq6ZcWUMA2+arvbiME9sZFfNg55pa4KeFp04KmtkrfI7/AGkr8x9EeFfjd8PLj4U+ENF8Y6Fq2o6z4Qup57CGzmWO2vBIwYCY/eGCB0610PiL9rDw3repeMLxdKvom1zxLpGtRp8uI47UL5iH3ODivlb6UnPrT+q03qX7eZ9IePPj14J+Ilg+k6lp+rJpNz42uvEFz5BUS/ZJY1UIp/v5B9qvfF74tfBfxv8ACvQ/Dmlaf4qiv/DNlNbaPJdSR+WWkk35lx1H0r5ipGpLC04tNX0B15tNPqe1+F/CvhGL9lfxf4i1nTgfFb61bWWiXv2n5iu0NMvlZ6AA5Yj+ICvFDS+Y2wIWYoDkLnik611nOeo/AX4o6d8LdS8VXOpW09ymq6Bd6XEIMfLJKoCk57DFaXh/40aboPwS0bwqlpcSaxp/ilNeEhwIWjVVAT1zla8c+7RzWTpxk7vc0VSUVZH11qv7Tfwut/EHjjxDpPh/XJdd8Y6XcW13PeTJsspJEA2RKOqlhyTzWDe/tO+HLjwzd6cmn34lm8G2fh5WO3AnilDs3+7gcV8x4pawWFpo1+sVD7G8N/tSfCqD4q+I/G+s+H9Yn1e4tLW10m7jEbNY7IQkkgVuN+Rwe1eH/GbXPh/4y8QWV74VvPERvL2Zm1S+8SzLMxLEfOCvOBzXlB/Og4pww8KcuaLaZMq0px5ZbHs/7SXxJ0XxVe+FPC/hW4a78L+EdKTTrW7KFPtUxO+abaegLnAz2FbngXxF4R8Y/sz6t4D13xSnhzXtP1v+3LBr2B5YriMQFDCjL91ifw5r58pdwrH6jT9lClFtcrun1v8A8HqT7SXM5PqIR1NJS7qSvQMgooooAKKKKACus0eOE6bAXkcNg5AXI6muTrptL/5B8P0/rSYGf4g/4+LL/rzh/wDQay66DxdfR3T2CpZwWx+zRtuizkgqOOT0Fc/Uikb/AIL8Ky+LtaS0DiC0jUzXVy33YYl5Zj/T3rr/AIyRaP8A2b4TudDsVsrOa0kCkLhpAr7Qze561x3hfxpq3g5ro6XcJCLpAkyyRq6uoOcEEV0Hjb4qXPjLw3pOlyQpGbZD9pbyUXzHzkFMD5RjtWt1yNdTKz5k+hwdFJRWZodXZf8AIu2H/XaX/wBloos/+Rd0/wD67Tf+y0Vzz+II7BRRRUFBWx4K8Xaj4V8Wad/Z7QqLyaGCYTQrIGXzBx8wOOprHrPvL19N1Gwu4wDJA6yqG6ZVgRVcqkuVo0pzdOaknax0/wAStDfWvjZrWlWESRy3OpmCKNRtUFmAHToK7fXP2e9Pt9J1uCwn1b+2dHgNxLNd2nl2lyF++sbdcjtnrXM+MPiZ4Z1bXoPFOjaTf2PilruO7m86VWtgy4LBQOSCR3rQ8cfGPQ/E1lqVxbr4kg1S/Q7rWTUf9DhY/eIXqV9Aa45LEvkUdEvzPfpywUVVdRqTb09H8t7lnw34V+H7/Bo6xq0uoC5OoJDNc28Kl42252KCeV759a8a1FbZbyf7G0j2vmERNIMMUzwT713ngfx9oNn4N1Dwv4n0+9utOmulvIptPkVZEkAwQd3BBFcHqUltJfTtZpJHaFz5SSHLBc8An1rrw8JQlPmvqzz8VUp1KdPksrLWy1v5m/8ADPT9A1Xxtpdp4mubu10iWZUkeyjEkhJIAXBPQnivXf2pPBfwy8LeOtd0fwm2rWviGC9ih/s2SFFs41KLnY2dxPIPPcmvAtNvn03ULW7QAvbyrKoPTKkEfyr2L43fFHwF8TrybxXpmja1pvjm+lhmvPPnjexVkUBigHzHdtBGelXOMvaqSvY44yXI0zuYP2X/AAS/iBfhzJ4p1Jfim1h9r2fZl/s4TGHzhblvvZ28bumayPgr4H+F2qfBbx/qviubVv7V00WonktbdWNmHuAqmEk/MWxhs9BWnN+1B4L/AOEgb4iQ+F9TX4pPp/2MyNcodNWbyfJ+0hfvZ287ema80+DfxP0Dwnpvi7w94v0y81Pw74mtoorl9OkVLmCSKTzI5E3cHnOQa5eStKLvfp1+8356akrJdf8AgEHhvwr4F8SfFC502C+8Qy+F9m60NrYibULhgB8mxeBkluegArsviz8OT+znq3gnxn4Sub5INWglntrXX7NBc2siMUdZEOVIOcj61T+Fvxi8FfDHxt4vNlpOuR+Ftc046dBcQ3Ea6pZAlSZEf7oJKnOOxqt8c/jZ4f8AiZ4P8IaBomlapYJ4ca5jjuNTuhcS3EUjBgztn7+Qc9ueK0aqSqpW90zXs1B9zZ/as1aXxJovwm1q7it01HUvDCXF1JbQJCJJDK/zFVAGcV8+la9vv/i54D8ZfC3w/pHizQNXl8T+G9Ok03TbrTrhEtpYyWaMzBvmypPbrXiOc10YeLjDlatYzqtSldHovw++Dv8AwnmivqA8TaTpAWUx+RfOwc478A8VlfEj4dn4e3VpB/bWn619ojL77BmITnGDkDmp/Bfxm8W/D7Sn0/Q9SW0tGkMpja3jk+Y9TlgazfHHxJ1/4jXNvca/eLeS26FIysSR4UnP8IFba3NpSw/sUlF85haVarfalaWzMVWaZIyy9QCwH9a+nNR/Zd8C2njHxD4Et/FuoXvjK0sJdRtjHbL9kjVIhL5UrE53kdxwOK+Y9LvBp+pWl0yllhmSUqOp2sDj9K9yj/aM0qP9oLxB8Q/7Iu/sOpWE1olnuXzEZ7cRAk5xgEZrCrGcn7rMqbil7xyGu/Cuy0n4e/DnxCl9M9x4oubmGeEqNsIilRAV9c7u9etWv7LfgvTvF/jGx17xLqdvpuh63puj272tury3DXaZBPYYbH4A1x3hX41eCF+GfhbRvFPhnUdW1jwrdz3Om/ZrlY7W5ErK22fPzABlH3etamvftPaZrmteKdRbRbmJtZ8R6TriorLiJbQYePr1Y9P1rntWlpqaXprUf8Svgj4F+FaaLrn9oat4h0Wy8SXOg65avGsDyyQAOTCeysDtyfSo/wBqWbQNZ8C/CbxDoPhmx8LQ6pp12xs7EfwpcFE3t1ZtoGSe5NZvjj48eG/iDp76VqWj6lHpdx4xu/Edz5EiCX7PMoXylJ43jHXpVr4pfFr4V+NPhrofh3S9B8T2l74dtJbbSbi7uYWj/eS+YxlA5PJI49qUY1OaDkndDlKDUlE+fhXrvwO+Auq/E/UoLm4066Phx47gNewMo/eJGxVeT3YAfjXkeea7D4afEq++G/iKHU4PNuYo4po/spmZEJkjZN2B3G7P4V6PQyoSpxqJ1VdHf/Db9mq88QeONU8PeLbiXwp9m0afV0uJlDqI4yMs2P4cZ6c8Va8Q/BHwdfeC/C/ifwfrmqXmnXuvL4fvhqMCxuJDtIljA/hIboeRXJ/CX4vjwHrXiS/1WK71U6pod1pUX73cY2lAwxLH7ox0qzovxmt9F+D2leEo9PlfUNP8SLrq3DMPKZVVQE9c5WuSUajndPt/wS3Kl0Xf/gG8v7P2lt8V/iT4UGqXAtvCum3l7BPsG+doQpCsOwOe1dtpP7MPw8h8HpqmseKdZjvotCs/EN1b2lorKsErBDGpPVsnj261V1j9prwDHr3jPXtH8I6out+MNMuLW/uL25RltJJFAxAo6qSMktzjGKwLr9pTS7jw/f6cujXYe48KWfh4Sb1wJIZA5k/3SB9a55RryirXRpGVGL11ItaQ/s0/FzX/AA5omhaZ4xnuFgGnTazZ+fIiSKHUCMcFyGwfpUv7XOkaVpd94NlOjWPhzxpeaULjxDpOmjZDbzFv3fyfwOV5K11fh/8Aao8A23xI8R+M9T8J6rJrV5aW9ppd7BJE0mn7IgjyKrHbvJHDc4rxH4teIPBviXU4r/wvD4iF3OXkv7jxDcpPJM56MCv49a0pxn7RSlG1uvcico8jUX8jgKKKK7zkCiiigAooooAKKKKACul0v/kHw/T+tc1XWaPcJHpsCm3jc4PzNnPU0mBk+If9dY/9ecP/AKDWXWv4khlhmsfMjZP9DhHzAj+GsipFIWk3V2vwlt9LuPFZ/tY2ZhS2leKO/bbE8uPlDH0zV/4k6XqMWj6feS6boMenSSFUvdC+ZWfHKMcnn2rTl925nze9ZnnlJS0lQWdXZ/8AIu6f/wBdpv8A2Wiiz/5F3T/+u03/ALLRXPPcI7BRRRUFBWPrv3ofoa2K2vAfhjQvGXjjTdF16/u9OgvSsEEtnCJGMrMAoIJGBz1rSG5pTg6klBbs85/xpK9l8a/CzwfourJ4Q0LXL3XfGjaktm2LcR2aAtgjceSw4yenWur8Rfsu6Xa6Pr1vpmp6tLr+h2zXM7XmnNFY3IX76wyHqR79a6LnYsDVlzctny7/AOR830tfQfhnwJ8MJvgP/b2r3+qR3Z1GOCe8t7QNJC+zPlIpbDL33VwQ+HOl33w38U+LLG/uHh0vUIbS2iljCmWNycM3PB9hS5iJYWUUmmndXPOPrS8V6nq3wx8P+GbrwJJq+qXiab4gsPtdxJbwB5IGLFQqrnkZxWz8UPhZ4B+Gk2paN/wkeoat4l/dtaww2oSGJXCsPOYn72D0X2p3F9Vmk22tDxPbzSV9IS/s3eD4fF8vhA+LbuXxLcWX2yziitAYo/3PmbZmzwTz93oMV84yxmORkPVSRQncith50fiG0or2P9k/wb4R8efGTRNH8WtdS29xLtgs4IdyXLhWJWRtwKLgZyMmq3iT4e+EPFHxE0Xwx8OL/Vr6/wBS1BrKWPV7ZIEhdpNq7SrNlRzknsKxdVKbg1srmaptxUrnkrUYxX0LrvwE8CX2ieM4PBvi7UtW8UeEIWudQtr6xWG3uo0cJM0DAk/Kx/iAyK19J+HfwcH7OeleJNX1DX4bufWHtZ9Qs7FGlEgiVjCFaTHljOQ3Uk9Kn6xHSye9i/Yvqz5kP3aNten/AAp8DeDvGOs6rFq954lkhhYfYrTQdK+13M6ZPzP8wCYGK6Lxt4f1H9lz4xf2doV7DqEN3awTQy6tpsbv5M2CFeKQMFcdDiqlXSk4rclU3bm6HhrLtpK9p/a/tbez+POux21tBZxGK3fybaJY4wWhUnCqABya8XxWtOXtIKa6mco8smhKKKKokKKKKACiiigAzS7qSimAu6jdSUUALuozSUUAFFFFIAooooAKKKKACiiigArptL/48Ifp/WuZrqNKjdtPhIRiMenvSYFXxVfXN5Jp6z3EswFpEwEjk4JUc81h1q+If9dYf9eUP/oArKqVsKRqeH/7IGoA64t41htORYlRJu7fe4xW34n8ZWV9oVtoGh2EmnaNDMbhjcSeZNNIRjcxwAMDsK5Gg1WpFru4UlFLSKOps/8AkXdP/wCu0v8A7LS1Q0ZdZ1a2+x6Zp1xqAtQ07rbQNKyKcZZtoOBwOaptrNxGSCq56dKxa5pNJ6oaTS1NuisL+25/Rfyo/tuf0T8qPZsZu10Xw317wv4X8cWGseKF1J4bFkuLZdNCEmVWyA+7+HjtXAf25P6J+VV7q8e8ZWcAFRgYqowaZpTqOnJTjuj1rx98QvBf/Cc2vjLwamsDWv7SN/cQ6oI/J+8G2ptyeTnrXUfEL9oHw74o0vVrqyv/ABtDq2pRlf7Nk1IDT7dm+9gDll64X3r523UE5rWx0/W6vva7+R6x8OfiN4Th+Huo+DPGdnqbabNepqEF1pJTzVcLtKsH4wR3qx4J+I3gvT/DvivwprVlq58N6ldR3dpJZtGblDGeFfd8vI7ivHqKLIiOJqRtbppse2+KPih4G8deIPCBv9N1XSdB0Sxa1NtZMkkoIfKYZuoPfpz0pnxs8d/D7x9q8viHRINeg12WSENHerELcRooU4wSc4ArxXJoBpcqLeLqSi4u2uux7uvx00Vfj4njc2t5/Zi2K2xh2r5u4W/lZxnGM89eleGXEgluJHHAZiRn60wmkp2sYVK06mkn5nYfCH4gv8K/iV4e8Vrai+/su6EzWxbb5i4Ksuex2k4966/XPiN4K8J/Ebw94w+G1jrkF9Y351G5j1+WJ0LbwwjTyx0xuBJ55ryCis5U1KV2QptKyPobxT8cfh9p+k+M7nwJ4f1yx8SeMImt7+XVrmN4LKJ5BJKkAQZbcwHLdBWD8O/ij4I/4VXN4D8faXrU+nQ6mdWs7vQZokl8wxhGjcScbTgcjmvGA1ITU+wgo2KdSTdz3f4S/Grwh4Q8EeKfCesWXiKzsdSv0voNR8P3UcN6yIMLbyueqHvjuTxWB+0B8YNN+LnjTStf0rTLrSTa6db2bwXUwm+aLgEN1IIxnPOa8nopqjHm5uoe0ly8vQ9t+NXxT+H/AMWLE+IE0XXLHx9cQQQXOZ4jp4MahWdRjeSwHQ4xXieeKSirhBU1aJEpOTuwoooqyQooooAKKKKACiiigAooooAKKKKACiiigAooooAKKKKACiiigArrdHnlTTYAsrqMHgMQOprkq6rSf+QdB9P60mBW8XaebOTT2NxbzZtIlxC+48KOenSsCtXxB/rLH/rzh/8AQayqkUjuvhH4RtfFWuXb3qJNaafbNdNBJJ5aykcKrN2XPWpviZo+pfZdP1R7TQ49LctDDLoODEG67XPUt7msXwL4tj8K6hd/a7U3um31u1rdW6ttZkbup7EGr/ibxhpDeFYPDvh+xurawFz9rnmvpA8sr4wBwAAAK3Uly2MbS57nF0UGkrE1PQvgL8SNV+GHxQ0LVNN1O802B7yGO9FmxzPB5i742UfeBH8Peum/a++Hd78P/jl4leaC0t7DV72bUdPjtJUYCCRyy7kHMZwfusAR6Vi/s8WPheT4j2GqeLfE0PhrS9Hlj1AtLavO10Y3B8pFX+I478VifGrxnbfET4teLfE1ksyWeq6nPdwLP98Rs5K598YryVCTzH2kFZKNm7b6q2vkdN17Gz7nFUUUV7BgFFFFABRRRQAUUUUAFFFFABRRRQAUUUUAFFFFABRRRQAUUUUAFFFFABRRRQAUUUUAFFFFABRRRQAUUUUAFFFFABRRRQAUUUUAFFFFABXYaLbGTS4G82Jcg8M+D1NcfXS6X/yD4fp/WkwKPiD/AFlj/wBecP8A6DWVW94s+xeZYfZPPB+yxZ84j7u0Y6d6wakUhfeitfw14ln8L3j3NvbWty7ps23cIlXr1APeu3+KWteX4f0nSLuxsU1qQC9upbW3WLyVYfJFx7cmtYxVrkXaaVjzClxRS9KzKHLDJLyiswHoM1GylTjvXq37OvijUtP+ImjaLBMo03ULxBc27RqwkABGDkVg2fg2fx58XJ/D9oywPd6hKm/HCKGJJx7AGuf2/JOUZ7JXPRjhfaUoTpu7btY4bbSYr23xl8FdK0/wXrOs6XHrVnJo8kYmGrwLGlzGzbd8eO4PY9jU+peH/hrY/CzwvqVzFq4ku5LpPtECxiWR1Kgh8/wgkY78msljISScE3d2Nnl1SMpRnJKyv+h4XRinyKvmNsyEz8u7riu6+CPhfw340+I2k6D4nl1KGy1KZLSGTTNnmLM7BULbhjbyc967Jy5IubR5ijzPlRwWKK91+IHwq8B6J4mT4feGL/Vtd8ctrC6fJfTosNlGC+3aF+8SOMt7GvQPFX7Hek2eg+K7PSV8UR+IPDdo15JqOqWiR6bqATHmLCRyPbJ5xXO8TCNrrc29jLW3Q+S9vvSYr6P8H/s/+Ex8ING8Za8ninXP7WMu4+FreOaPTQhxicHJyevYYrz3T/hnpWofB/xl4yhu7kyaPqtvZWsTqAJI5SfmcdmwB0rRVoyvbpoQ6ckeapE0hwilz6KM0jRNG2HVkPowxXtGs6fe/s//APCvvEvhXVpodT8Q6MbudpI0cRlnKFVBHTA71oftlsk/xohmdFiM+jadNMYkC5ZoFLNgcZJJNTGtzSSS0aG6fLFt7o8GwKNvPpX1P8Q/BfwU0D4P/DzUnh8RxXWq2d5LBdWyQiS4kWQL+/yOgbhcdiaZ+yFqng3URqHhe48H2mo+ILrS9TubrWdQ/e+VHHAzRJCh4U5GS3XpUfWPcc1F7l+x9/kufLRGKBzTiK1/CXh9fE3iGy0x7yLT1uX2G5mVmSPgnJCgn8q7WrGEYuUlFdTGIxRXsutfs82+k6Re3w8aaXcm2haXyUgnDPgZ2glMZPvXjeKS1Nq1CpQfLUVgC5o212fw38N6R4gurpNUttZvfLUGODR4Q7H1LMeFArrL74I20PxSj0Bb+eHSGsv7TknmjHnRQBNxUgcbu1bKnKUeZHlTxlKnUdOW6VzyHyztz29cUCMtwAT9BXt+q6X4auPgrfnwu91LHNrcMW3UI1EsZ2kD5l6g5roPBXgfwl4R8bX+jR3t5d+I7PSpzcedGptncwksqdwQD1PpWvsG7JM5f7RioSk4O6b09Or7bnzft96NtfRlv4B0nxV8DfDq2trEniaLzr6NlQBrqFJAJEJ7kA5/CsL4l/D/AEzUPEnxCvoB9hTRbO0uILe3ULGS6xggj8SaU8PKKvcVHM6dWbg1Zptfil+NzxDbRivXPCfwd03xBB4Kea+nt/7divZJmVQfL8kcbR3z3rX1D4MeFJvDk13pepak15Jor6zbrcIoQLG+x1bHckEjFJUJyV0aSzGhGag739Pl+h4tp+j32rNMLGzuLwwxNNL5EZfy416u2Bwo9TVXFfRnhuM+AP2L9f17T8R6r4v8QLolxcrw8dnDH5rRg9g7kZ9cCvOU+GdnqPwLPjfT7iebUbHWf7M1K0wCkaOgaCRe/wAxDL9RXj0cUqrm2tFLlXy3/HQ9uVJqy62uec7aVYy2ABk+gr2zxN8F/Dvgv4meGfCmqXmsXc02lQXWrQaXbia5S6kj3+REuOwKgk9Oa0/jF8I7L4P6D4P8e+FG1zSTd3ssAsPEMUYubeaHDBxt4KkEdRW31iLaiuoexlZt9DwGSGSLG9GTPTcCKaRX0d+0Z4ivvGXwR+EGv6vIl1rF7De/aLoRKjS7ZcDO0DoK1/gbqngvXvg/480C18GWh1iz8Mz315rl7+9nacMAoiz/AKtQPxpe2ap87j1sNUk58tz5a7UlFGK6jnCipIFj86PzSfK3Ddt64zzivoH/AIZp0+4+PWjeFrbUrhvB+o6ZHrv9rMF3x2PkGSVyemVKsv1xWU6ig7MuMHLY+evxp8cEk2diM+Ou1Sa9n+Dfw18G+OLjVv7RsvGGqLHeeTaroFrGyRwHpJNI/Ab/AGR1roNGt9e/Zr/aYl8D6Jq/mWU+rWVpcTSQIxuLdnRlDAg4OHIOO+azlWSbjHdK5pGm2lJ7HzuVK5BGGHUGkx716r+0JJDo37SXjaVbOCe3ttfmf7I64idVlzsIH8JAwfY169pnigfEj4D+Pdd8deEvD+h+Hre3WPw3eWOnpazNqG4YjhI5kULnd1ApyrOMYytuKNNSk432PliTRb+LS4tSks7hNOmcxR3bRMIncdVDYwSPSqVfSP7N+PHXwb+MHgfUh51ja6SPEViX5+zXULAMyntuVsHHXFfNxrLD4h1alWlJawdvk1dEyiopNdQrpdL/AOQfD9P61zVdbo32f+zIN4k34OdpGOp9q7GZmR4g/wBdYf8AXlD/AOg1l1qeIOZrHv8A6HD/AOg1l1KFIsafcR2t9bTSp5kUcquyf3gDkitTxt4jHi3xTqGrLEYEuZAyRMc7FAAA/SsSk+lV5E21uLR1ooFIDZ8H+J5/BnijS9btkWSaxnWZUbo2DyD9a7i8+KWgaL460/xT4V0S5s76O6e6uI7yfejbvvRqB0HLc+9YfhDwnZa1pJuLhZWfzCvyHjAxW1/wgOkek3/fVdscreJSndbd/wAzmecrB3parXt18mQ+PPiH4f1/SbiDSbTWobm5kDub7UGliiXOSip3H19KboPxC8O3HgSz8OeJtHurxdNmmns57KYRk+Zgsr57ZA5FWP8AhAdI9Jv++qP+EB0j0m/76rRZHNRUO3mZviKm5uo73atseYysrSOUBCZO0HsO1d38FvGXhrwD42s9f8R6Tf6uNPljurOKxuBCRMjhgWJHK8dK0v8AhAdI9Jv++qP+EB0j0m/76reWU1ZLlbOVZzh0+bX7jS+Inxc8Lan8QrPxv4N0PU9G8QLqp1S4OoXSzRO28OFUAcDOfwNdP8Tf2h/CXjjT9ZvrPR/E1n4i1dD5kMmtOdPtpG+80cY5IPPynjmuG/4QDSPSb/vqj/hAdI9Jv++qx/sWenkX/blHXfXyOw+CPx08FfCWz07Uf7H8SHxJY7ndLPVfLsL5ucebEf4cdR3rI8FfG3w6mieONC8Y+Hri80fxLfpquzSZxA9vMjswQZGNnzYrH/4QHSPSb/vqk/4QHSPSb/vqh5LPV9WH9uUNN9PIX41/GKz+Kg8KLp+hJ4ft9BsDp8VtG+9NgcspBPOcHnPU1u/FD4xeCPil4atr+/8ACt/B4+i06DTmvYrwCzPlKFWXy8Z3bRjHSsL/AIQDST0Wc/Q5o/4QHSO4mH1OKP7HndK6uvMf9t0rN62fkbdj8YPBXiH4U6D4X8aeG9SvtQ8Nrcppd5pt2IkdZm3bZVI7MM5Hapf2f/jB4E+ELPqmqeGdW1bxFJDdWjzW16scHkTIUxtIzuAJ5rn/APhAdI9Jv++qa/gXRo/vGQH3cU3ksuVxb0fmEc8oqSkr39Dj/HF54cvvEEkvhXT73TNHKKEt76cTShsfMSwHQmqHh/X7/wAL6xbapplw1rf2zb4plAJU4xnmvQP+EB0j0m/76o/4QHSPSb/vqtlldZKyZn/bGHvfX7irqX7QnxA1bT7qxu/EU81rcxtFLG0aYZT1HSvOQTXqP/CA6R6Tf99Uf8IDpHpN/wB9Uf2XW7oqWdUZ6ybZT+HvxF0jw94V1bQNZ0+8ntrydLgXGnz+TNlQRsY90PpWxefHK1k8eaX4hg0Qx20Onf2bd2LzFhLFtKnDdQceveqf/CA6R6Tf99Uf8IBpHpN/31WywGJSUU0efLF4CU3Nxd2M174leHofBcvh3w1ot1YxG/jvxc3c4kcsvYgDGPSug/4Xj4aGtXHiMeGrn/hI76ze1un+0DyQzR7DIi4zk+9YX/Cv9J9Jsf71H/CA6R6Tf99VX1LE3umiHisBJWaf+fqRab8ZZtEtPAwsLZo7rw3JMzuzZW4WRgSuPTGR+Na938bNI1rxh4yvNR0W4/sbxJBHC9vbzASwbNpUg4weVrM/4QHSM4xNn/epR4B0hhn99j/epfUcTtdFPFYCTvyu+343/M0rX446Zp994WNpoL2thoUd3DHbrNkusy4BJ/vA8n1qnb/Gi3h0m3s/7MkJj8Pz6KWEg5aSQuJPoM4xUP8Awr/SPSb/AL6qaz+HmjzXcEbLMVd1U/N2Jo+o4na6F9ay+OvK9P6/U0PAPxF0O++AvjL4c+Jbp7JvtMeuaFeCMuq3aDZJCwHQSJ37EVn/AAB+M9l8JdV1WLXdE/4SXw1qkUf2rS/M2bpopBJDID/ssOfUEitSL4Z6LcSSLb6bdXBjVnYRuWKoOrHA4HvWdq/w50W1ugsYmSNkVgC+eozXnRyNp1IRad3dq/X+keis9otxdn5aF/4e/tFPoXxm8QeOPEOnPqv9vQ3Vvci3k8ue3WbjfC/8LKAAPapfix8cPDXjT4YaX4K0Lw9f2EGlalLe2+oahem4nmWRQH8wn+IkDGOAKwP+Ff6T/wBNv++hS/8ACA6Qe83/AH0K0/sSd1PTQv8AtyjZx1+43dI+MngzWPhJpHhLxr4av9TvfD5uDpV3p92IVYSndslBHIDc8Ve+Dvxl+G/w38LarZ3/AIT1vUNV1rT5NN1G4t9QWONombP7tcZU4ArlP+Ff6R/02/76o/4QDSP+m3/fVS8lqNNPZ+YLPKKaev3Fr4QaT4W8W/tD6DbRaPv8HS36vLp+rXapi2Ay/mS8DjBP6VxvxOl0Sb4jeJD4agFvoH2+YWMS9FhDkLj2xXUf8IDpA6Gcf8CrQ0b4b6JdGctFcTlFGyNXwWJOK6VlVe2rRi84w972f3HkO2vdNO/aaax+B8nhBtG8zxOtnLo1t4g8zmLTZXV5INvrkEA9gxqBfhjoTXrWk1hdW0ykq6vIQyEDoQRWAPAek7RlJM/79TLKJ1YqV01utSo55Qi2kmvkdT8Nfj14Y8O/CaDwd4i8P6ldmw1N9VtpdKvfsy3bsqgR3OOWQY4x6muY+LnxqHxC+NH/AAsHTdN/sm48y1uRas+9VmiVBwf7pKU3/hAtJ/uS/wDfdH/CBaT/AHJf++6x/sWak5aXNP7co25dbeh0/wASPi38MPHnjO28VnwTqaapfanHqGt273w+zyL1liiGMjeecnpWr8Yfj18OPivZyBvC3iDT5LW1NvpFjDqKLYafgYXbEB09e5rg/wDhAtK/uS/990v/AAgek/3JP++6SyOd077eY/7dotNa6+Rr/Dv4kaF8Nfgb43t7S5e48beKymleQIyEtLBTvkct3Z2wMDsK8XxXqP8AwgWkf3Jf++6T/hA9I/uS/wDfdVTyWpSlKSesndmbzmhKyd9PI8urqNL/AOQfD9P611P/AAgWkf3Zv++qnHhewtVESGUKo4+anUy+rTV3YunmdCq7RucP4s1Brx7BWhhixaxNmJNp5UcfSsKtPxB/rrH/AK84f/QBWXXlHqyPX/2YdC0vXviJPDqVlDeyRafPNZ/awTaxzqMq02OiD8q6T9oPQltfhz4W1LVdG0mz8TXNzMr3nh5R9jktx91WKkrvz+OK89+EfxJsfAU2u2er6bLqWi65ZGxvFtpBHOi5yGjY8Zz2PWtPxp8TvDzfDpPBHhDTdQg0h70X9zc6vMrzNIBgKirwox19a741IKjy9dTglCbrqXTQ8rpaTpS9s1wncfQP7MusXFre6dYJ5TWl3fbZo5IlfcMdMkcfhVzT/D8nibxs2k2pWOS4vZEUkcKAzEn8AP0rjfg7rEnh+Cy1KJQ8lrd+aFbo2AMj8q9HbxdpGj+KrPXNBsLqKZJ2uJo7yVSp3Zyi47cnmvcp0a8P3lCPxQtfz8zxalfDVF7LEy0jUu1/dt0LfiD4e2lpoGoalpz6ih0+RFmXULfyhMrNt3xn69vepb7SPCMHgnQryWXUUkuHnUzRQrudlIBDDPAB6Vk+JvFGm6lZyxWLaz5szh2F9eeZFGM5Khe/1NJp/iXR5/C9rpGs2d1L9hlkmtpbSRVzvxlWB9x1qIYfFulB1XJtSvbra3+ZdTFYFYipGgopONk2rq9/w0OUbGeOldN8N9E0TxJ4y0zSNeub60tb+ZLaKWwjDuJXYKuQf4eea5s4yccCun+GuvaF4Y8W2Wsa9a397FYSx3NtFp7ojGZGDDfu/h47c19DiOf2ElDex8nh+T28faWtfXsdF4w8A+FdI1pPCOgarqGueLjqgsXmkhEVmmW27RnksD1PTg11+vfs42Fnp3iW20641465oFs1zNPqFh5VhdhMeYsL+o7Z64rifGfjzw5c+NbfxZ4UsNWsNY/tI6lMupSxvFu3BgqbecZyOe1bnj74waB4utdVvbVPFtrq+pgs1nNq+dPt5D94qgOWXrhTxzXieyxf7vkbXe/f/I9j2mD/AHnMk+1u3+YzQfhL4eX4aaP4r1251+4TVDJj+wbMTx2QU4/fHOQT1xXI2fgu1vvhx4m8UR3UzPpWoQWcMOwBZUkJ+dvQ4HSus+FPxS8M/DeGyvxb+Jl1m1Jea2sb5FsL5uwkjbovqMGsvwz8RtCbR/F2i+JtIvJdL168TUVGjyJG8EqsWCDdxtwcVtBYuMpN3eqf47GMpYWSjZpaNf8ABGapaXnwhHhDXdCvwb3WtKa8kFzbpIsWXKFQrAg8d6u/tIbG+J3meXHD52lafNIIIwg3NCGYhRxySaxvil8QrLx9H4dj0/Sm0WDR7A2CW/meYNu/KkHqTjrnvWl488f+FPH2i219caNqlv4xjsYLBpo7hPsTeUAqy7fvZ29q1hTrRnTqzjd2af6ETq0ZUqlKDsrpo6bxh4T+F2k/DfwTqH2nXorrUbW7kjuIbVN1y6yBf3oJ+UKeBjsa5T4UeLtYtrix8PaH4Q0XX9SvLnczX1n58sgOBszn5EAyc+5qW38feFNb+Hui6D4n0jVpb7QBcLp9zps8axyrK27bKG5GGHUdq1Phz8VvCPg/4d3Wh3Gka1b63fswv9a0ieOOaWHPEKM3KLjrjk1yulWhQlTcHJ37/ijo9rRnXjUUlFJdvwOa+OFnoOm/FTxBa+G1iTSoplVY7dt0Ucm0eaqHuofcB9K5TQ9LGs6rbWTXMVmJm2+fMTsTgnJ9uKl8SSaJNrEreHra8tdK2r5ceoOrzA4+bJXg81X0nVLrQ9QgvrGXybuBt0cm0NtOMZweDXt0YuNGMVvbqeTKpB1+eavG/Q7TUvhTHp+n3FyPFOjzmGMv5UbsWfA6DjrXAdK668+Lfi7ULSa1udXEsEyGORPs0Y3KeoyBxXI/yq6anFe+7m2OqYWpNPCx5UbvhXS9P1S4mW+F+5QApDp8HmO3qSewFbtx8OI4/GsekC8dLJrb7Y00seJEi27iCv8Aeqh4T8VWOk6LqGmX8N5suZVmFxYSCOXgY2En+E1o3XxJt5PFVjq0enOsCWf2K4tmkyXTG04b1xW68z56ftnN8uxJfWOjt8OrqTRpZrhX1OOL/S4gsiHB7jsa1/D/AIV0PQ/El3pxvJrrV7WxlaVJIR5JYxkkKfUZ61y2p+KNIh8NyaRo9ldQg3aXYmunUsSvYgdq11+ImiLqs2tf2Xd/2vdW7Qz/AL1fKVim0uvfn3ouYunV5WlfW/6blyLwrYa18L9KNvCia3H5l0Cq/NcRq4DqfUgc/hVHxl4Vs5tX8WXFvi1j023t5Y4YlwrbggP8yayrLx6+l2/hj7LEy3GkPIZCx+WVXbJX8uK0Lj4g6bqXiDxFNd2Nwul6xEkZjhZfMi27SCM8HlaOgRp1qc291v8AitPuK2h+AbfVYfDjvdyRf2qlyz4XPl+WOMeucVrQ+AdFaO3uLLUbuSV7H+0oFliCjarhWDc9Sc4qlD8RLC1utC+zaZLDaaWtxGsfmBmdZFwCT65JJqPSfHUCHTrb7JJuj0xtMJ3DG5pNwb6c04/EgnHES1Ta/p/8A7HS2/4RX9nDXNXs/k1HxJrw0aW4A+ZLWKPzGjB7b2Iz6gVy/g6bTG8RWtnc6cl7dXKBRLNykaCLPA/vZFaPh3xbpdx8KfFHg3Wbk2bi8TWNHn2FlNyoKSQtjoHTofUVzuja5pfh3WLe+vLa6uLqGNTH5LKFwY8YOe/Jrysgp1MLiMT7dWbqXu+sWla3psfTSqwc6MovRR+7uVfCGnwXmpanczQrcR2ULSpC33WcsFUH2ya1fF+kOfD8tzfWtpaanZ3SxMbEARyI67hn3FY9j4j07SNamms7S4fTbqFoLmCdxvIbqVI6Edqi1vXrObS4tM0uG4hsxL58r3ThpJGxgZx2Ar6v2tKNGUOuv/AI54KDXU5/FAr03xlo/h3S/gh4Dni09bXxdfz3Et3OJ97TWwOI2ZM/Jk9Bwa8yrxk7nLJcrtc09D1aTSpnENlb3k82ET7RHv289h6muq8URx2LRPHDHYaqbNZbqK2+VY33jaR6HHasjwZ4j03w211Nd2c094y7YJ4iuYfUgHv70rS6bqUty1m1zB5qj7RNfOHIy4+bj0r0OaMcM1e7fQuTXsrJ6/ken/GVY9aj+G3jFkCal4h0Rvt5Ax5s1u/l+afdlxn6V4RXrvxM8ZaZ4k17w7pOhO0/h7w1pq6dZ3DqVNwxy00uDyAzHjPYV5FXyuSUK2Hy+nTrKz107Ju6XyRpipwqYiUoeXzfcKKXHvRXuHNdCUUtFAXQlFLRQK4U2S4MbbdqngfeXJ6U6oLj/WH6D+VcOL+FHfg3779DynxB/rrH/rzh/wDQBWXRRXw59/IcBQ1FFMkbS0UUDNnR/F1/otobe2MflFt3zpk5q5/wsLVvWD/v3/8AXooroWIqxSSkzJ4ajN80oJsP+Fhat6wf9+//AK9H/CwtW9YP+/f/ANeiil9ZrfzMX1Sh/IgPxE1f1g/790L8RNX9YP8Av3RRR9ZrW+Ji+q0L/AvuA/ETVvWD/v3QPiJqx7wf9+6KKPrVb+dh9VoX+BB/wsLVvWD/AL9//Xo/4WFq3rB/37/+vRRR9arfzsf1Sh/IvuA/ETVh3g/79/8A16B8RNWPeD/v3RRR9arfzsX1Whf4EH/Cw9W9Yf8Av3/9el/4WHq/rB/37/8Ar0UUvrNb+Zj+qUP5EIfiJq47wf8Afv8A+vQPiJq/rB/37/8Ar0UU/rVb+di+q0L/AAL7gPxE1cd4f+/f/wBek/4WLq/rB/37ooo+tVv52L6rQ/kX3Cj4iavnrB/37p3/AAsTVv8Aph/37ooo+tVv52NYSh/IhP8AhYmrf9MP+/dH/CxNW/6Yf9+6KKPrVb+dj+qUP5EH/CxNW/6Yf9+6P+Fiat/0w/790UUfWq387D6pQ/kQH4iat/0w/wC/f/16dB8SdYhmSVTBuQhh+77j8aKKPrVf+di+qUP5EX2+L2rNkm0sc/8AXI/41UvPidrF9N5ri3U4ChVjwAAMetFFa/Wq73myVg8OvsIg/wCFhat6w/8AfH/16X/hYWresP8A3x/9eiioeJrfzsr6nh/5F9w1fiFqoyQIMnr+76/rTv8AhYmrY/5YD/tnRRR9ZrfzsPqtD+RfcJ/wsbVv+mH/AH7qzZ/FLWLIy7UtXWQbWV4uDzn1oop/Wq/87F9UofyL7iyvxh1mMkpb2KNjG5YjkfrWb/wsLVl7w/8AfuiipeKrvebD6nh47QX3Cf8ACxdX9Yf++KX/AIWNq/rD/wB+6KKf1mt/Ow+q0P5F9wf8LG1f1g/790f8LG1f1g/790UU/rNb+Zh9VofyL7g/4WNq/rB/37o/4WNq/rB/37oop/WK38zD6rQ/kX3B/wALG1f1g/791r2fiq/u7aOVzHuYc4SiipderLeTGsPRj8MUj//Z;" parent="1" vertex="1">
                    <mxGeometry x="470" y="860" width="365.41" height="182.24" as="geometry"/>
                </mxCell>
                <mxCell id="19" value="Here only allocate the memory by variables" style="shape=note;whiteSpace=wrap;html=1;backgroundOutline=1;fontColor=#000000;darkOpacity=0.05;fillColor=#FFF9B2;strokeColor=none;fillStyle=solid;direction=west;gradientDirection=north;gradientColor=#FFF2A1;shadow=1;size=0;pointerEvents=1;sketch=1;hachureGap=4;jiggle=2;curveFitting=1;fontFamily=Architects Daughter;fontSource=https%3A%2F%2Ffonts.googleapis.com%2Fcss%3Ffamily%3DArchitects%2BDaughter;fontSize=20;" parent="1" vertex="1">
                    <mxGeometry x="550" y="630" width="235" height="70" as="geometry"/>
                </mxCell>
                <mxCell id="20" value="2. Execution Phase" style="text;html=1;align=center;verticalAlign=middle;resizable=0;points=[];autosize=1;strokeColor=none;fillColor=none;fontSize=20;fontFamily=Architects Daughter;sketch=1;hachureGap=4;jiggle=2;curveFitting=1;fontSource=https%3A%2F%2Ffonts.googleapis.com%2Fcss%3Ffamily%3DArchitects%2BDaughter;" parent="1" vertex="1">
                    <mxGeometry x="530" y="710" width="190" height="40" as="geometry"/>
                </mxCell>
                <mxCell id="21" value="operation like +-*/ or any other task is executed" style="shape=note;whiteSpace=wrap;html=1;backgroundOutline=1;fontColor=#000000;darkOpacity=0.05;fillColor=#FFF9B2;strokeColor=none;fillStyle=solid;direction=west;gradientDirection=north;gradientColor=#FFF2A1;shadow=1;size=0;pointerEvents=1;sketch=1;hachureGap=4;jiggle=2;curveFitting=1;fontFamily=Architects Daughter;fontSource=https%3A%2F%2Ffonts.googleapis.com%2Fcss%3Ffamily%3DArchitects%2BDaughter;fontSize=20;" parent="1" vertex="1">
                    <mxGeometry x="550" y="750" width="235" height="70" as="geometry"/>
                </mxCell>
                <mxCell id="23" value="Step 1 - Global execution / enviroment" style="text;html=1;align=center;verticalAlign=middle;resizable=0;points=[];autosize=1;strokeColor=#2D7600;fillColor=#60a917;fontSize=20;fontFamily=Architects Daughter;sketch=1;hachureGap=4;jiggle=2;curveFitting=1;fontSource=https%3A%2F%2Ffonts.googleapis.com%2Fcss%3Ffamily%3DArchitects%2BDaughter;fontColor=#ffffff;" parent="1" vertex="1">
                    <mxGeometry x="30" y="860" width="370" height="40" as="geometry"/>
                </mxCell>
                <mxCell id="24" value="" style="edgeStyle=segmentEdgeStyle;endArrow=classic;html=1;curved=0;rounded=0;endSize=8;startSize=8;sourcePerimeterSpacing=0;targetPerimeterSpacing=0;sketch=1;hachureGap=4;jiggle=2;curveFitting=1;fontFamily=Architects Daughter;fontSource=https%3A%2F%2Ffonts.googleapis.com%2Fcss%3Ffamily%3DArchitects%2BDaughter;fontSize=16;" parent="1" edge="1">
                    <mxGeometry width="100" relative="1" as="geometry">
                        <mxPoint x="140" y="900" as="sourcePoint"/>
                        <mxPoint x="170" y="1020" as="targetPoint"/>
                        <Array as="points">
                            <mxPoint x="140" y="940"/>
                            <mxPoint x="170" y="940"/>
                        </Array>
                    </mxGeometry>
                </mxCell>
                <mxCell id="25" value="first of all the code run here&lt;br&gt;And Allocated into This Keyword" style="shape=note;whiteSpace=wrap;html=1;backgroundOutline=1;fontColor=#000000;darkOpacity=0.05;fillColor=#FFF9B2;strokeColor=none;fillStyle=solid;direction=west;gradientDirection=north;gradientColor=#FFF2A1;shadow=1;size=0;pointerEvents=1;sketch=1;hachureGap=4;jiggle=2;curveFitting=1;fontFamily=Architects Daughter;fontSource=https%3A%2F%2Ffonts.googleapis.com%2Fcss%3Ffamily%3DArchitects%2BDaughter;fontSize=20;" parent="1" vertex="1">
                    <mxGeometry x="190" y="910" width="260" height="100" as="geometry"/>
                </mxCell>
                <mxCell id="26" value="(This) - Window Object" style="text;html=1;align=center;verticalAlign=middle;resizable=0;points=[];autosize=1;strokeColor=none;fillColor=none;fontSize=20;fontFamily=Architects Daughter;sketch=1;hachureGap=4;jiggle=2;curveFitting=1;fontSource=https%3A%2F%2Ffonts.googleapis.com%2Fcss%3Ffamily%3DArchitects%2BDaughter;" parent="1" vertex="1">
                    <mxGeometry x="140" y="1020" width="230" height="40" as="geometry"/>
                </mxCell>
                <mxCell id="cnNIpTJuUeeP2EXCqGdK-26" value="Step 2 - Memory Creation Phase" style="text;html=1;align=center;verticalAlign=middle;resizable=0;points=[];autosize=1;strokeColor=#2D7600;fillColor=#60a917;fontSize=20;fontFamily=Architects Daughter;sketch=1;hachureGap=4;jiggle=2;curveFitting=1;fontSource=https%3A%2F%2Ffonts.googleapis.com%2Fcss%3Ffamily%3DArchitects%2BDaughter;fontColor=#ffffff;" parent="1" vertex="1">
                    <mxGeometry x="52.5" y="1100" width="330" height="40" as="geometry"/>
                </mxCell>
                <mxCell id="cnNIpTJuUeeP2EXCqGdK-27" value="val1 : undefined&lt;br&gt;val2 : undefined&lt;br&gt;addNum : Function Defination&lt;br&gt;result1 : undefined&amp;nbsp;&lt;br&gt;result2 : undefined" style="text;html=1;align=center;verticalAlign=middle;resizable=0;points=[];autosize=1;strokeColor=none;fillColor=none;fontSize=20;fontFamily=Architects Daughter;sketch=1;hachureGap=4;jiggle=2;curveFitting=1;fontSource=https%3A%2F%2Ffonts.googleapis.com%2Fcss%3Ffamily%3DArchitects%2BDaughter;" parent="1" vertex="1">
                    <mxGeometry x="52.5" y="1150" width="290" height="130" as="geometry"/>
                </mxCell>
                <mxCell id="cnNIpTJuUeeP2EXCqGdK-28" value="Here Allocated the memory space using varibles" style="shape=note;whiteSpace=wrap;html=1;backgroundOutline=1;fontColor=#000000;darkOpacity=0.05;fillColor=#FFF9B2;strokeColor=none;fillStyle=solid;direction=west;gradientDirection=north;gradientColor=#FFF2A1;shadow=1;size=0;pointerEvents=1;sketch=1;hachureGap=4;jiggle=2;curveFitting=1;fontFamily=Architects Daughter;fontSource=https%3A%2F%2Ffonts.googleapis.com%2Fcss%3Ffamily%3DArchitects%2BDaughter;fontSize=20;" parent="1" vertex="1">
                    <mxGeometry x="375" y="1165" width="260" height="100" as="geometry"/>
                </mxCell>
                <mxCell id="cnNIpTJuUeeP2EXCqGdK-29" value="Step 3 - Execution Phase" style="text;html=1;align=center;verticalAlign=middle;resizable=0;points=[];autosize=1;strokeColor=#2D7600;fillColor=#60a917;fontSize=20;fontFamily=Architects Daughter;sketch=1;hachureGap=4;jiggle=2;curveFitting=1;fontSource=https%3A%2F%2Ffonts.googleapis.com%2Fcss%3Ffamily%3DArchitects%2BDaughter;fontColor=#ffffff;" parent="1" vertex="1">
                    <mxGeometry x="90" y="1310" width="260" height="40" as="geometry"/>
                </mxCell>
                <mxCell id="cnNIpTJuUeeP2EXCqGdK-30" value="val 1 = 10&lt;br&gt;val 2 = 5&lt;br&gt;line 7 -addNum&amp;nbsp;" style="text;html=1;align=center;verticalAlign=middle;resizable=0;points=[];autosize=1;strokeColor=none;fillColor=none;fontSize=20;fontFamily=Architects Daughter;sketch=1;hachureGap=4;jiggle=2;curveFitting=1;fontSource=https%3A%2F%2Ffonts.googleapis.com%2Fcss%3Ffamily%3DArchitects%2BDaughter;" parent="1" vertex="1">
                    <mxGeometry x="110" y="1380" width="160" height="90" as="geometry"/>
                </mxCell>
                <mxCell id="cnNIpTJuUeeP2EXCqGdK-32" value="" style="edgeStyle=none;orthogonalLoop=1;jettySize=auto;html=1;sketch=1;hachureGap=4;jiggle=2;curveFitting=1;fontFamily=Architects Daughter;fontSource=https%3A%2F%2Ffonts.googleapis.com%2Fcss%3Ffamily%3DArchitects%2BDaughter;fontSize=16;" parent="1" edge="1">
                    <mxGeometry width="100" relative="1" as="geometry">
                        <mxPoint x="260" y="1450" as="sourcePoint"/>
                        <mxPoint x="360" y="1450" as="targetPoint"/>
                        <Array as="points"/>
                    </mxGeometry>
                </mxCell>
                <mxCell id="cnNIpTJuUeeP2EXCqGdK-33" value="create New enviroment context" style="text;html=1;align=center;verticalAlign=middle;resizable=0;points=[];autosize=1;strokeColor=none;fillColor=none;fontSize=20;fontFamily=Architects Daughter;sketch=1;hachureGap=4;jiggle=2;curveFitting=1;fontSource=https%3A%2F%2Ffonts.googleapis.com%2Fcss%3Ffamily%3DArchitects%2BDaughter;" parent="1" vertex="1">
                    <mxGeometry x="370" y="1350" width="320" height="40" as="geometry"/>
                </mxCell>
                <mxCell id="cnNIpTJuUeeP2EXCqGdK-39" style="edgeStyle=elbowEdgeStyle;sketch=1;hachureGap=4;jiggle=2;curveFitting=1;html=1;exitX=0.75;exitY=1;exitDx=0;exitDy=0;fontFamily=Architects Daughter;fontSource=https%3A%2F%2Ffonts.googleapis.com%2Fcss%3Ffamily%3DArchitects%2BDaughter;fontSize=16;" parent="1" source="cnNIpTJuUeeP2EXCqGdK-37" edge="1">
                    <mxGeometry relative="1" as="geometry">
                        <mxPoint x="120" y="1590" as="targetPoint"/>
                        <Array as="points">
                            <mxPoint x="620" y="1560"/>
                            <mxPoint x="540" y="1560"/>
                            <mxPoint x="350" y="1520"/>
                        </Array>
                    </mxGeometry>
                </mxCell>
                <mxCell id="cnNIpTJuUeeP2EXCqGdK-37" value="" style="whiteSpace=wrap;html=1;sketch=1;hachureGap=4;jiggle=2;curveFitting=1;fontFamily=Architects Daughter;fontSource=https%3A%2F%2Ffonts.googleapis.com%2Fcss%3Ffamily%3DArchitects%2BDaughter;fontSize=20;" parent="1" vertex="1">
                    <mxGeometry x="380" y="1390" width="320" height="100" as="geometry"/>
                </mxCell>
                <mxCell id="cnNIpTJuUeeP2EXCqGdK-38" value="Create new variable Enviroment&lt;br&gt;+&lt;br&gt;Execution Thread" style="text;html=1;align=center;verticalAlign=middle;resizable=0;points=[];autosize=1;strokeColor=none;fillColor=none;fontSize=20;fontFamily=Architects Daughter;sketch=1;hachureGap=4;jiggle=2;curveFitting=1;fontSource=https%3A%2F%2Ffonts.googleapis.com%2Fcss%3Ffamily%3DArchitects%2BDaughter;" parent="1" vertex="1">
                    <mxGeometry x="380" y="1395" width="320" height="90" as="geometry"/>
                </mxCell>
                <mxCell id="cnNIpTJuUeeP2EXCqGdK-40" value="1. Memory Phase" style="text;html=1;align=center;verticalAlign=middle;resizable=0;points=[];autosize=1;strokeColor=none;fillColor=none;fontSize=20;fontFamily=Architects Daughter;sketch=1;hachureGap=4;jiggle=2;curveFitting=1;fontSource=https%3A%2F%2Ffonts.googleapis.com%2Fcss%3Ffamily%3DArchitects%2BDaughter;" parent="1" vertex="1">
                    <mxGeometry x="450" y="1550" width="170" height="40" as="geometry"/>
                </mxCell>
                <mxCell id="cnNIpTJuUeeP2EXCqGdK-41" value="val 1 : undefined&lt;br&gt;val 2 : undefined&lt;br&gt;total : undefined" style="text;html=1;align=center;verticalAlign=middle;resizable=0;points=[];autosize=1;strokeColor=none;fillColor=none;fontSize=20;fontFamily=Architects Daughter;sketch=1;hachureGap=4;jiggle=2;curveFitting=1;fontSource=https%3A%2F%2Ffonts.googleapis.com%2Fcss%3Ffamily%3DArchitects%2BDaughter;" parent="1" vertex="1">
                    <mxGeometry x="455" y="1600" width="170" height="90" as="geometry"/>
                </mxCell>
                <mxCell id="cnNIpTJuUeeP2EXCqGdK-42" value="2. Execution Context" style="text;html=1;align=center;verticalAlign=middle;resizable=0;points=[];autosize=1;strokeColor=none;fillColor=none;fontSize=20;fontFamily=Architects Daughter;sketch=1;hachureGap=4;jiggle=2;curveFitting=1;fontSource=https%3A%2F%2Ffonts.googleapis.com%2Fcss%3Ffamily%3DArchitects%2BDaughter;" parent="1" vertex="1">
                    <mxGeometry x="227.5" y="1550" width="210" height="40" as="geometry"/>
                </mxCell>
                <mxCell id="cnNIpTJuUeeP2EXCqGdK-43" value="num 1 : 10&lt;br&gt;num 2 : 2&lt;br&gt;total : 15" style="text;html=1;align=center;verticalAlign=middle;resizable=0;points=[];autosize=1;strokeColor=none;fillColor=none;fontSize=20;fontFamily=Architects Daughter;sketch=1;hachureGap=4;jiggle=2;curveFitting=1;fontSource=https%3A%2F%2Ffonts.googleapis.com%2Fcss%3Ffamily%3DArchitects%2BDaughter;" parent="1" vertex="1">
                    <mxGeometry x="280" y="1605" width="110" height="90" as="geometry"/>
                </mxCell>
                <mxCell id="cnNIpTJuUeeP2EXCqGdK-44" value="3. Delete" style="text;html=1;align=center;verticalAlign=middle;resizable=0;points=[];autosize=1;strokeColor=none;fillColor=none;fontSize=20;fontFamily=Architects Daughter;sketch=1;hachureGap=4;jiggle=2;curveFitting=1;fontSource=https%3A%2F%2Ffonts.googleapis.com%2Fcss%3Ffamily%3DArchitects%2BDaughter;" parent="1" vertex="1">
                    <mxGeometry x="102.5" y="1550" width="100" height="40" as="geometry"/>
                </mxCell>
                <mxCell id="cnNIpTJuUeeP2EXCqGdK-45" value="All performing all the&lt;br&gt;&amp;nbsp;task it automatictically delete&lt;br&gt;&amp;nbsp;the newly created enviroment&lt;br&gt;&amp;nbsp;varible by fuction" style="text;html=1;align=center;verticalAlign=middle;resizable=0;points=[];autosize=1;strokeColor=none;fillColor=none;fontSize=20;fontFamily=Architects Daughter;sketch=1;hachureGap=4;jiggle=2;curveFitting=1;fontSource=https%3A%2F%2Ffonts.googleapis.com%2Fcss%3Ffamily%3DArchitects%2BDaughter;" parent="1" vertex="1">
                    <mxGeometry x="-40" y="1595" width="310" height="110" as="geometry"/>
                </mxCell>
                <mxCell id="27" value="" style="edgeStyle=none;orthogonalLoop=1;jettySize=auto;html=1;sketch=1;hachureGap=4;jiggle=2;curveFitting=1;fontFamily=Architects Daughter;fontSource=https%3A%2F%2Ffonts.googleapis.com%2Fcss%3Ffamily%3DArchitects%2BDaughter;fontSize=16;curved=1;exitX=0.455;exitY=1.056;exitDx=0;exitDy=0;exitPerimeter=0;" edge="1" parent="1" source="cnNIpTJuUeeP2EXCqGdK-43">
                    <mxGeometry width="100" relative="1" as="geometry">
                        <mxPoint x="280" y="1740" as="sourcePoint"/>
                        <mxPoint x="440" y="1740" as="targetPoint"/>
                        <Array as="points">
                            <mxPoint x="340" y="1740"/>
                        </Array>
                    </mxGeometry>
                </mxCell>
                <mxCell id="28" value="Total return to global execution" style="text;html=1;align=center;verticalAlign=middle;resizable=0;points=[];autosize=1;strokeColor=none;fillColor=none;fontSize=20;fontFamily=Architects Daughter;sketch=1;hachureGap=4;jiggle=2;curveFitting=1;fontSource=https%3A%2F%2Ffonts.googleapis.com%2Fcss%3Ffamily%3DArchitects%2BDaughter;" vertex="1" parent="1">
                    <mxGeometry x="440" y="1720" width="320" height="40" as="geometry"/>
                </mxCell>
                <mxCell id="29" value="line 8 - addnum&amp;nbsp;&lt;br&gt;" style="text;html=1;align=center;verticalAlign=middle;resizable=0;points=[];autosize=1;strokeColor=none;fillColor=none;fontSize=20;fontFamily=Architects Daughter;sketch=1;hachureGap=4;jiggle=2;curveFitting=1;fontSource=https%3A%2F%2Ffonts.googleapis.com%2Fcss%3Ffamily%3DArchitects%2BDaughter;" vertex="1" parent="1">
                    <mxGeometry x="37.5" y="1830" width="170" height="40" as="geometry"/>
                </mxCell>
                <mxCell id="30" value="" style="edgeStyle=none;orthogonalLoop=1;jettySize=auto;html=1;sketch=1;hachureGap=4;jiggle=2;curveFitting=1;fontFamily=Architects Daughter;fontSource=https%3A%2F%2Ffonts.googleapis.com%2Fcss%3Ffamily%3DArchitects%2BDaughter;fontSize=16;" edge="1" parent="1">
                    <mxGeometry width="100" relative="1" as="geometry">
                        <mxPoint x="202.5" y="1849.5" as="sourcePoint"/>
                        <mxPoint x="302.5" y="1849.5" as="targetPoint"/>
                        <Array as="points"/>
                    </mxGeometry>
                </mxCell>
                <mxCell id="31" value="Repeat Above Steps" style="text;html=1;align=center;verticalAlign=middle;resizable=0;points=[];autosize=1;strokeColor=none;fillColor=none;fontSize=20;fontFamily=Architects Daughter;sketch=1;hachureGap=4;jiggle=2;curveFitting=1;fontSource=https%3A%2F%2Ffonts.googleapis.com%2Fcss%3Ffamily%3DArchitects%2BDaughter;" vertex="1" parent="1">
                    <mxGeometry x="320" y="1820" width="210" height="40" as="geometry"/>
                </mxCell>
            </root>
        </mxGraphModel>
    </diagram>
</mxfile>